<?xml version="1.0" standalone="no"?>
<!DOCTYPE svg PUBLIC "-//W3C//DTD SVG 20010904//EN"
 "http://www.w3.org/TR/2001/REC-SVG-20010904/DTD/svg10.dtd">
<svg version="1.0" xmlns="http://www.w3.org/2000/svg"
 width="342.000000pt" height="420.000000pt" viewBox="0 0 342.000000 420.000000"
 preserveAspectRatio="xMidYMid meet">

<g transform="translate(0.000000,420.000000) scale(0.100000,-0.100000)"
fill="#000000" stroke="none">
<path d="M306 3968 c-5 -31 -247 -3843 -246 -3880 0 -17 23 -18 333 -18 l333
0 39 998 c29 745 40 1157 44 1631 l6 634 278 -1399 c153 -769 281 -1407 283
-1416 5 -17 30 -18 342 -18 l338 0 269 1415 270 1415 6 -448 c7 -470 10 -547
65 -1907 19 -467 34 -862 34 -877 l0 -28 340 0 c265 0 340 3 340 13 1 30 -241
3855 -246 3885 l-5 32 -459 0 c-253 0 -460 -3 -460 -7 0 -14 -480 -2776 -482
-2779 -2 -1 -115 606 -252 1349 -138 744 -254 1371 -259 1395 l-9 42 -448 0
-449 0 -5 -32z"/>
</g>
</svg>
